<svg viewBox="0 0 46 46" width="46" height="46" xmlns="http://www.w3.org/2000/svg" role="img" aria-label="json-express logo">

<!--  <rect x="0" y="0" width="54" height="10" rx="6" fill="#2a9d8f"></rect>-->
<!--  <rect x="60" y="0" width="20" height="10" rx="6" fill="#e8dfc8"></rect>-->

<!--  <rect x="0" y="20" width="20" height="10" rx="6" fill="#e8dfc8"></rect>-->
<!--  <rect x="26" y="20" width="54" height="10" rx="6" fill="#2a9d8f"></rect>-->

<!-- <rect x="0" y="38" width="54" height="10" rx="6" fill="#2a9d8f"></rect>-->
<!-- <rect x="60" y="38" width="20" height="10" rx="6" fill="#e8dfc8"></rect>-->

<!--  <rect x="0" y="54" width="80" height="5" rx="3" fill="#e8dfc8"></rect>-->

    <rect x="0" y="0" width="46" height="5" rx="3" fill="#e8dfc8"></rect>
    <rect x="0" y="7" width="46" height="5" rx="3" fill="#e8dfc8"></rect>

    <rect x="0" y="15" width="46" height="5" rx="3" fill="#2a9d8f"></rect>
    <rect x="0" y="22" width="46" height="5" rx="3" fill="#2a9d8f"></rect>

    <rect x="0" y="29" width="46" height="5" rx="3" fill="#e8dfc8"></rect>
    <rect x="0" y="36" width="46" height="5" rx="3" fill="#e8dfc8"></rect>

    <rect x="0" y="43" width="46" height="2.5" rx="3" fill="#e8dfc8"></rect>

</svg>
