<svg width="967" height="320" viewBox="0 0 967 320" fill="none" xmlns="http://www.w3.org/2000/svg">
<path d="M355.942 190.182V212H352.65V190.182H355.942ZM366.606 212.32C365.285 212.32 364.106 211.982 363.069 211.308C362.039 210.626 361.229 209.656 360.64 208.399C360.058 207.135 359.766 205.619 359.766 203.85C359.766 202.082 360.061 200.569 360.651 199.312C361.247 198.055 362.064 197.092 363.101 196.425C364.138 195.757 365.313 195.423 366.627 195.423C367.643 195.423 368.46 195.594 369.078 195.935C369.703 196.268 370.185 196.659 370.526 197.107C370.874 197.554 371.144 197.948 371.336 198.289H371.528V190.182H374.713V212H371.602V209.454H371.336C371.144 209.802 370.867 210.2 370.505 210.647C370.15 211.094 369.66 211.485 369.035 211.819C368.41 212.153 367.6 212.32 366.606 212.32ZM367.309 209.603C368.225 209.603 368.999 209.362 369.631 208.879C370.271 208.388 370.754 207.71 371.08 206.844C371.414 205.977 371.581 204.969 371.581 203.818C371.581 202.682 371.418 201.687 371.091 200.835C370.764 199.983 370.285 199.319 369.653 198.843C369.021 198.367 368.239 198.129 367.309 198.129C366.35 198.129 365.551 198.378 364.912 198.875C364.273 199.372 363.79 200.05 363.463 200.91C363.144 201.769 362.984 202.739 362.984 203.818C362.984 204.912 363.147 205.896 363.474 206.769C363.801 207.643 364.283 208.335 364.923 208.847C365.569 209.351 366.364 209.603 367.309 209.603ZM386.312 212.33C384.7 212.33 383.311 211.986 382.147 211.297C380.989 210.601 380.094 209.624 379.462 208.367C378.837 207.103 378.524 205.622 378.524 203.925C378.524 202.249 378.837 200.771 379.462 199.493C380.094 198.214 380.975 197.217 382.104 196.499C383.24 195.782 384.568 195.423 386.088 195.423C387.012 195.423 387.907 195.576 388.773 195.881C389.639 196.187 390.417 196.666 391.106 197.32C391.795 197.973 392.338 198.822 392.736 199.866C393.134 200.903 393.333 202.163 393.333 203.648V204.777H380.325V202.391H390.211C390.211 201.553 390.041 200.81 389.7 200.164C389.359 199.511 388.88 198.996 388.262 198.619C387.651 198.243 386.934 198.055 386.11 198.055C385.215 198.055 384.434 198.275 383.766 198.715C383.105 199.148 382.594 199.717 382.232 200.42C381.877 201.116 381.699 201.872 381.699 202.689V204.553C381.699 205.647 381.891 206.577 382.274 207.344C382.665 208.112 383.208 208.697 383.904 209.102C384.6 209.5 385.414 209.699 386.344 209.699C386.948 209.699 387.498 209.614 387.995 209.443C388.492 209.266 388.922 209.003 389.284 208.655C389.647 208.307 389.924 207.877 390.115 207.366L393.13 207.909C392.889 208.797 392.456 209.575 391.831 210.242C391.213 210.903 390.435 211.418 389.497 211.787C388.567 212.149 387.505 212.33 386.312 212.33ZM401.629 212.362C400.592 212.362 399.655 212.17 398.816 211.787C397.978 211.396 397.314 210.832 396.824 210.093C396.341 209.354 396.1 208.449 396.1 207.376C396.1 206.453 396.277 205.693 396.633 205.097C396.988 204.5 397.467 204.028 398.071 203.68C398.674 203.332 399.349 203.069 400.095 202.891C400.841 202.714 401.601 202.579 402.375 202.487C403.355 202.373 404.15 202.281 404.761 202.21C405.372 202.131 405.816 202.007 406.093 201.837C406.37 201.666 406.508 201.389 406.508 201.006V200.931C406.508 200.001 406.245 199.28 405.72 198.768C405.201 198.257 404.427 198.001 403.397 198.001C402.325 198.001 401.48 198.239 400.862 198.715C400.251 199.184 399.829 199.706 399.594 200.281L396.601 199.599C396.956 198.605 397.474 197.803 398.156 197.192C398.845 196.574 399.637 196.126 400.532 195.849C401.427 195.565 402.368 195.423 403.355 195.423C404.008 195.423 404.701 195.501 405.432 195.658C406.171 195.807 406.86 196.084 407.499 196.489C408.145 196.893 408.674 197.472 409.086 198.225C409.498 198.971 409.704 199.94 409.704 201.134V212H406.593V209.763H406.466C406.26 210.175 405.951 210.58 405.539 210.977C405.127 211.375 404.598 211.705 403.951 211.968C403.305 212.231 402.531 212.362 401.629 212.362ZM402.321 209.805C403.202 209.805 403.955 209.631 404.58 209.283C405.212 208.935 405.691 208.481 406.018 207.92C406.352 207.352 406.519 206.744 406.519 206.098V203.989C406.405 204.102 406.185 204.209 405.858 204.308C405.539 204.401 405.173 204.482 404.761 204.553C404.349 204.617 403.948 204.678 403.557 204.734C403.167 204.784 402.84 204.827 402.577 204.862C401.959 204.94 401.395 205.072 400.883 205.256C400.379 205.441 399.974 205.707 399.669 206.055C399.37 206.396 399.221 206.851 399.221 207.419C399.221 208.207 399.513 208.804 400.095 209.209C400.677 209.607 401.419 209.805 402.321 209.805ZM429.525 195.636V198.193H420.587V195.636H429.525ZM422.984 191.716H426.169V207.195C426.169 207.813 426.261 208.278 426.446 208.591C426.631 208.896 426.869 209.106 427.16 209.219C427.458 209.326 427.781 209.379 428.129 209.379C428.385 209.379 428.609 209.362 428.801 209.326C428.992 209.29 429.141 209.262 429.248 209.241L429.823 211.872C429.639 211.943 429.376 212.014 429.035 212.085C428.694 212.163 428.268 212.206 427.756 212.213C426.918 212.227 426.137 212.078 425.413 211.766C424.688 211.453 424.102 210.97 423.655 210.317C423.207 209.663 422.984 208.843 422.984 207.856V191.716ZM439.766 212.33C438.231 212.33 436.893 211.979 435.749 211.276C434.606 210.572 433.718 209.589 433.086 208.325C432.454 207.06 432.138 205.583 432.138 203.893C432.138 202.195 432.454 200.711 433.086 199.44C433.718 198.168 434.606 197.181 435.749 196.478C436.893 195.775 438.231 195.423 439.766 195.423C441.3 195.423 442.638 195.775 443.782 196.478C444.925 197.181 445.813 198.168 446.445 199.44C447.077 200.711 447.393 202.195 447.393 203.893C447.393 205.583 447.077 207.06 446.445 208.325C445.813 209.589 444.925 210.572 443.782 211.276C442.638 211.979 441.3 212.33 439.766 212.33ZM439.776 209.656C440.771 209.656 441.594 209.393 442.248 208.868C442.901 208.342 443.384 207.643 443.697 206.769C444.016 205.896 444.176 204.933 444.176 203.882C444.176 202.838 444.016 201.879 443.697 201.006C443.384 200.125 442.901 199.418 442.248 198.886C441.594 198.353 440.771 198.087 439.776 198.087C438.775 198.087 437.944 198.353 437.283 198.886C436.63 199.418 436.143 200.125 435.824 201.006C435.511 201.879 435.355 202.838 435.355 203.882C435.355 204.933 435.511 205.896 435.824 206.769C436.143 207.643 436.63 208.342 437.283 208.868C437.944 209.393 438.775 209.656 439.776 209.656ZM459.144 190.182H463.139L470.085 207.142H470.341L477.287 190.182H481.282V212H478.15V196.212H477.947L471.513 211.968H468.913L462.479 196.201H462.276V212H459.144V190.182ZM487.975 190.182L494.047 207.952H494.292L500.365 190.182H503.923L496.071 212H492.268L484.417 190.182H487.975ZM507.074 212V190.182H514.851C516.548 190.182 517.954 190.491 519.07 191.109C520.185 191.727 521.019 192.572 521.573 193.644C522.127 194.71 522.404 195.91 522.404 197.245C522.404 198.587 522.123 199.795 521.562 200.867C521.008 201.933 520.17 202.778 519.048 203.403C517.933 204.021 516.53 204.33 514.84 204.33H509.492V201.538H514.542C515.614 201.538 516.484 201.354 517.152 200.984C517.82 200.608 518.31 200.097 518.622 199.45C518.935 198.804 519.091 198.069 519.091 197.245C519.091 196.421 518.935 195.69 518.622 195.05C518.31 194.411 517.816 193.911 517.141 193.548C516.474 193.186 515.593 193.005 514.499 193.005H510.366V212H507.074Z" fill="#6366F1"/>
<path d="M537.495 212L532.679 195.636H535.971L539.178 207.653H539.338L542.555 195.636H545.847L549.043 207.6H549.203L552.388 195.636H555.68L550.875 212H547.626L544.302 200.185H544.057L540.733 212H537.495ZM558.703 212V195.636H561.888V212H558.703ZM560.312 193.112C559.758 193.112 559.282 192.927 558.884 192.558C558.493 192.181 558.298 191.734 558.298 191.215C558.298 190.69 558.493 190.242 558.884 189.873C559.282 189.496 559.758 189.308 560.312 189.308C560.866 189.308 561.338 189.496 561.728 189.873C562.126 190.242 562.325 190.69 562.325 191.215C562.325 191.734 562.126 192.181 561.728 192.558C561.338 192.927 560.866 193.112 560.312 193.112ZM573.812 195.636V198.193H564.874V195.636H573.812ZM567.271 191.716H570.456V207.195C570.456 207.813 570.549 208.278 570.733 208.591C570.918 208.896 571.156 209.106 571.447 209.219C571.745 209.326 572.068 209.379 572.416 209.379C572.672 209.379 572.896 209.362 573.088 209.326C573.279 209.29 573.429 209.262 573.535 209.241L574.11 211.872C573.926 211.943 573.663 212.014 573.322 212.085C572.981 212.163 572.555 212.206 572.044 212.213C571.206 212.227 570.424 212.078 569.7 211.766C568.975 211.453 568.389 210.97 567.942 210.317C567.495 209.663 567.271 208.843 567.271 207.856V191.716ZM580.873 202.284V212H577.687V190.182H580.83V198.3H581.032C581.416 197.419 582.002 196.719 582.79 196.201C583.579 195.683 584.608 195.423 585.88 195.423C587.002 195.423 587.982 195.654 588.82 196.116C589.665 196.577 590.319 197.266 590.78 198.183C591.249 199.092 591.483 200.228 591.483 201.592V212H588.298V201.975C588.298 200.775 587.989 199.844 587.371 199.184C586.753 198.516 585.894 198.183 584.793 198.183C584.04 198.183 583.366 198.342 582.769 198.662C582.179 198.982 581.714 199.45 581.373 200.068C581.04 200.679 580.873 201.418 580.873 202.284ZM602.627 212.33C601.093 212.33 599.754 211.979 598.611 211.276C597.467 210.572 596.579 209.589 595.947 208.325C595.315 207.06 594.999 205.583 594.999 203.893C594.999 202.195 595.315 200.711 595.947 199.44C596.579 198.168 597.467 197.181 598.611 196.478C599.754 195.775 601.093 195.423 602.627 195.423C604.161 195.423 605.5 195.775 606.643 196.478C607.787 197.181 608.674 198.168 609.307 199.44C609.939 200.711 610.255 202.195 610.255 203.893C610.255 205.583 609.939 207.06 609.307 208.325C608.674 209.589 607.787 210.572 606.643 211.276C605.5 211.979 604.161 212.33 602.627 212.33ZM602.638 209.656C603.632 209.656 604.456 209.393 605.109 208.868C605.763 208.342 606.245 207.643 606.558 206.769C606.878 205.896 607.037 204.933 607.037 203.882C607.037 202.838 606.878 201.879 606.558 201.006C606.245 200.125 605.763 199.418 605.109 198.886C604.456 198.353 603.632 198.087 602.638 198.087C601.636 198.087 600.805 198.353 600.145 198.886C599.491 199.418 599.005 200.125 598.685 201.006C598.373 201.879 598.216 202.838 598.216 203.882C598.216 204.933 598.373 205.896 598.685 206.769C599.005 207.643 599.491 208.342 600.145 208.868C600.805 209.393 601.636 209.656 602.638 209.656ZM624.176 205.214V195.636H627.372V212H624.24V209.166H624.07C623.693 210.04 623.089 210.768 622.258 211.35C621.435 211.925 620.408 212.213 619.18 212.213C618.128 212.213 617.198 211.982 616.388 211.521C615.586 211.052 614.954 210.359 614.492 209.443C614.038 208.527 613.81 207.394 613.81 206.045V195.636H616.996V205.661C616.996 206.776 617.305 207.664 617.922 208.325C618.54 208.985 619.343 209.315 620.33 209.315C620.927 209.315 621.52 209.166 622.109 208.868C622.706 208.57 623.199 208.119 623.59 207.515C623.988 206.911 624.183 206.144 624.176 205.214ZM639.291 195.636V198.193H630.352V195.636H639.291ZM632.749 191.716H635.935V207.195C635.935 207.813 636.027 208.278 636.212 208.591C636.396 208.896 636.634 209.106 636.926 209.219C637.224 209.326 637.547 209.379 637.895 209.379C638.151 209.379 638.374 209.362 638.566 209.326C638.758 209.29 638.907 209.262 639.014 209.241L639.589 211.872C639.404 211.943 639.141 212.014 638.801 212.085C638.46 212.163 638.033 212.206 637.522 212.213C636.684 212.227 635.903 212.078 635.178 211.766C634.454 211.453 633.868 210.97 633.421 210.317C632.973 209.663 632.749 208.843 632.749 207.856V191.716ZM651.009 212V190.182H654.195V198.289H654.386C654.571 197.948 654.837 197.554 655.185 197.107C655.533 196.659 656.016 196.268 656.634 195.935C657.252 195.594 658.069 195.423 659.085 195.423C660.406 195.423 661.585 195.757 662.622 196.425C663.658 197.092 664.472 198.055 665.061 199.312C665.658 200.569 665.956 202.082 665.956 203.85C665.956 205.619 665.661 207.135 665.072 208.399C664.482 209.656 663.673 210.626 662.643 211.308C661.613 211.982 660.438 212.32 659.117 212.32C658.122 212.32 657.309 212.153 656.677 211.819C656.052 211.485 655.562 211.094 655.207 210.647C654.852 210.2 654.578 209.802 654.386 209.454H654.12V212H651.009ZM654.131 203.818C654.131 204.969 654.298 205.977 654.631 206.844C654.965 207.71 655.448 208.388 656.08 208.879C656.712 209.362 657.487 209.603 658.403 209.603C659.354 209.603 660.15 209.351 660.789 208.847C661.428 208.335 661.911 207.643 662.238 206.769C662.572 205.896 662.739 204.912 662.739 203.818C662.739 202.739 662.575 201.769 662.249 200.91C661.929 200.05 661.446 199.372 660.8 198.875C660.161 198.378 659.362 198.129 658.403 198.129C657.479 198.129 656.698 198.367 656.059 198.843C655.427 199.319 654.948 199.983 654.621 200.835C654.294 201.687 654.131 202.682 654.131 203.818ZM674.295 212.362C673.258 212.362 672.321 212.17 671.483 211.787C670.644 211.396 669.98 210.832 669.49 210.093C669.007 209.354 668.766 208.449 668.766 207.376C668.766 206.453 668.943 205.693 669.299 205.097C669.654 204.5 670.133 204.028 670.737 203.68C671.34 203.332 672.015 203.069 672.761 202.891C673.507 202.714 674.267 202.579 675.041 202.487C676.021 202.373 676.816 202.281 677.427 202.21C678.038 202.131 678.482 202.007 678.759 201.837C679.036 201.666 679.174 201.389 679.174 201.006V200.931C679.174 200.001 678.911 199.28 678.386 198.768C677.867 198.257 677.093 198.001 676.063 198.001C674.991 198.001 674.146 198.239 673.528 198.715C672.917 199.184 672.495 199.706 672.26 200.281L669.267 199.599C669.622 198.605 670.14 197.803 670.822 197.192C671.511 196.574 672.303 196.126 673.198 195.849C674.093 195.565 675.034 195.423 676.021 195.423C676.674 195.423 677.367 195.501 678.098 195.658C678.837 195.807 679.526 196.084 680.165 196.489C680.811 196.893 681.34 197.472 681.752 198.225C682.164 198.971 682.37 199.94 682.37 201.134V212H679.259V209.763H679.132C678.926 210.175 678.617 210.58 678.205 210.977C677.793 211.375 677.264 211.705 676.617 211.968C675.971 212.231 675.197 212.362 674.295 212.362ZM674.987 209.805C675.868 209.805 676.621 209.631 677.246 209.283C677.878 208.935 678.358 208.481 678.684 207.92C679.018 207.352 679.185 206.744 679.185 206.098V203.989C679.071 204.102 678.851 204.209 678.524 204.308C678.205 204.401 677.839 204.482 677.427 204.553C677.015 204.617 676.614 204.678 676.223 204.734C675.833 204.784 675.506 204.827 675.243 204.862C674.625 204.94 674.061 205.072 673.549 205.256C673.045 205.441 672.64 205.707 672.335 206.055C672.036 206.396 671.887 206.851 671.887 207.419C671.887 208.207 672.179 208.804 672.761 209.209C673.343 209.607 674.085 209.805 674.987 209.805ZM693.506 212.33C691.922 212.33 690.558 211.972 689.415 211.254C688.278 210.53 687.405 209.532 686.794 208.261C686.183 206.989 685.878 205.533 685.878 203.893C685.878 202.231 686.19 200.764 686.815 199.493C687.44 198.214 688.321 197.217 689.457 196.499C690.594 195.782 691.933 195.423 693.474 195.423C694.717 195.423 695.825 195.654 696.798 196.116C697.771 196.57 698.555 197.21 699.152 198.033C699.756 198.857 700.114 199.82 700.228 200.92H697.128C696.957 200.153 696.567 199.493 695.956 198.939C695.352 198.385 694.543 198.108 693.527 198.108C692.639 198.108 691.862 198.342 691.194 198.811C690.533 199.273 690.019 199.933 689.649 200.793C689.28 201.645 689.095 202.653 689.095 203.818C689.095 205.011 689.276 206.041 689.639 206.908C690.001 207.774 690.512 208.445 691.173 208.921C691.84 209.397 692.625 209.635 693.527 209.635C694.131 209.635 694.678 209.525 695.168 209.305C695.665 209.077 696.08 208.754 696.414 208.335C696.755 207.916 696.993 207.412 697.128 206.822H700.228C700.114 207.881 699.77 208.825 699.195 209.656C698.619 210.487 697.849 211.141 696.883 211.616C695.924 212.092 694.798 212.33 693.506 212.33ZM706.564 206.45L706.543 202.561H707.097L713.617 195.636H717.431L709.995 203.52H709.494L706.564 206.45ZM703.634 212V190.182H706.82V212H703.634ZM713.968 212L708.109 204.223L710.304 201.996L717.878 212H713.968ZM726.712 212.33C725.1 212.33 723.712 211.986 722.547 211.297C721.389 210.601 720.494 209.624 719.862 208.367C719.237 207.103 718.925 205.622 718.925 203.925C718.925 202.249 719.237 200.771 719.862 199.493C720.494 198.214 721.375 197.217 722.504 196.499C723.641 195.782 724.969 195.423 726.489 195.423C727.412 195.423 728.307 195.576 729.173 195.881C730.04 196.187 730.818 196.666 731.506 197.32C732.195 197.973 732.739 198.822 733.136 199.866C733.534 200.903 733.733 202.163 733.733 203.648V204.777H720.725V202.391H730.612C730.612 201.553 730.441 200.81 730.1 200.164C729.759 199.511 729.28 198.996 728.662 198.619C728.051 198.243 727.334 198.055 726.51 198.055C725.615 198.055 724.834 198.275 724.166 198.715C723.506 199.148 722.994 199.717 722.632 200.42C722.277 201.116 722.1 201.872 722.1 202.689V204.553C722.1 205.647 722.291 206.577 722.675 207.344C723.065 208.112 723.609 208.697 724.305 209.102C725.001 209.5 725.814 209.699 726.744 209.699C727.348 209.699 727.899 209.614 728.396 209.443C728.893 209.266 729.323 209.003 729.685 208.655C730.047 208.307 730.324 207.877 730.516 207.366L733.531 207.909C733.289 208.797 732.856 209.575 732.231 210.242C731.613 210.903 730.835 211.418 729.898 211.787C728.967 212.149 727.906 212.33 726.712 212.33ZM740.453 202.284V212H737.267V195.636H740.325V198.3H740.527C740.904 197.433 741.493 196.737 742.296 196.212C743.105 195.686 744.125 195.423 745.353 195.423C746.468 195.423 747.445 195.658 748.283 196.126C749.121 196.588 749.771 197.277 750.233 198.193C750.694 199.109 750.925 200.242 750.925 201.592V212H747.74V201.975C747.74 200.789 747.431 199.862 746.813 199.195C746.195 198.52 745.346 198.183 744.267 198.183C743.528 198.183 742.871 198.342 742.296 198.662C741.728 198.982 741.277 199.45 740.943 200.068C740.616 200.679 740.453 201.418 740.453 202.284ZM761.323 212.32C760.002 212.32 758.823 211.982 757.786 211.308C756.756 210.626 755.946 209.656 755.357 208.399C754.774 207.135 754.483 205.619 754.483 203.85C754.483 202.082 754.778 200.569 755.367 199.312C755.964 198.055 756.781 197.092 757.818 196.425C758.855 195.757 760.03 195.423 761.344 195.423C762.36 195.423 763.176 195.594 763.794 195.935C764.419 196.268 764.902 196.659 765.243 197.107C765.591 197.554 765.861 197.948 766.053 198.289H766.245V190.182H769.43V212H766.319V209.454H766.053C765.861 209.802 765.584 210.2 765.222 210.647C764.867 211.094 764.377 211.485 763.752 211.819C763.127 212.153 762.317 212.32 761.323 212.32ZM762.026 209.603C762.942 209.603 763.716 209.362 764.348 208.879C764.987 208.388 765.47 207.71 765.797 206.844C766.131 205.977 766.298 204.969 766.298 203.818C766.298 202.682 766.134 201.687 765.808 200.835C765.481 199.983 765.002 199.319 764.37 198.843C763.737 198.367 762.956 198.129 762.026 198.129C761.067 198.129 760.268 198.378 759.629 198.875C758.99 199.372 758.507 200.05 758.18 200.91C757.86 201.769 757.701 202.739 757.701 203.818C757.701 204.912 757.864 205.896 758.191 206.769C758.517 207.643 759 208.335 759.639 208.847C760.286 209.351 761.081 209.603 762.026 209.603ZM788.809 212.33C787.225 212.33 785.861 211.972 784.718 211.254C783.581 210.53 782.708 209.532 782.097 208.261C781.486 206.989 781.181 205.533 781.181 203.893C781.181 202.231 781.493 200.764 782.118 199.493C782.743 198.214 783.624 197.217 784.76 196.499C785.897 195.782 787.235 195.423 788.777 195.423C790.019 195.423 791.127 195.654 792.1 196.116C793.073 196.57 793.858 197.21 794.455 198.033C795.059 198.857 795.417 199.82 795.531 200.92H792.431C792.26 200.153 791.87 199.493 791.259 198.939C790.655 198.385 789.845 198.108 788.83 198.108C787.942 198.108 787.164 198.342 786.497 198.811C785.836 199.273 785.321 199.933 784.952 200.793C784.583 201.645 784.398 202.653 784.398 203.818C784.398 205.011 784.579 206.041 784.941 206.908C785.304 207.774 785.815 208.445 786.475 208.921C787.143 209.397 787.928 209.635 788.83 209.635C789.434 209.635 789.98 209.525 790.47 209.305C790.968 209.077 791.383 208.754 791.717 208.335C792.058 207.916 792.296 207.412 792.431 206.822H795.531C795.417 207.881 795.073 208.825 794.497 209.656C793.922 210.487 793.152 211.141 792.186 211.616C791.227 212.092 790.101 212.33 788.809 212.33ZM805.83 212.33C804.296 212.33 802.957 211.979 801.814 211.276C800.67 210.572 799.782 209.589 799.15 208.325C798.518 207.06 798.202 205.583 798.202 203.893C798.202 202.195 798.518 200.711 799.15 199.44C799.782 198.168 800.67 197.181 801.814 196.478C802.957 195.775 804.296 195.423 805.83 195.423C807.364 195.423 808.703 195.775 809.846 196.478C810.99 197.181 811.878 198.168 812.51 199.44C813.142 200.711 813.458 202.195 813.458 203.893C813.458 205.583 813.142 207.06 812.51 208.325C811.878 209.589 810.99 210.572 809.846 211.276C808.703 211.979 807.364 212.33 805.83 212.33ZM805.841 209.656C806.835 209.656 807.659 209.393 808.312 208.868C808.966 208.342 809.449 207.643 809.761 206.769C810.081 205.896 810.241 204.933 810.241 203.882C810.241 202.838 810.081 201.879 809.761 201.006C809.449 200.125 808.966 199.418 808.312 198.886C807.659 198.353 806.835 198.087 805.841 198.087C804.839 198.087 804.008 198.353 803.348 198.886C802.694 199.418 802.208 200.125 801.888 201.006C801.576 201.879 801.419 202.838 801.419 203.882C801.419 204.933 801.576 205.896 801.888 206.769C802.208 207.643 802.694 208.342 803.348 208.868C804.008 209.393 804.839 209.656 805.841 209.656ZM817.013 212V195.636H820.071V198.3H820.273C820.614 197.398 821.172 196.695 821.946 196.19C822.72 195.679 823.647 195.423 824.726 195.423C825.82 195.423 826.736 195.679 827.475 196.19C828.221 196.702 828.771 197.405 829.126 198.3H829.297C829.687 197.426 830.309 196.73 831.161 196.212C832.013 195.686 833.029 195.423 834.208 195.423C835.692 195.423 836.903 195.888 837.841 196.819C838.785 197.749 839.258 199.152 839.258 201.027V212H836.072V201.325C836.072 200.217 835.771 199.415 835.167 198.918C834.563 198.42 833.842 198.172 833.004 198.172C831.967 198.172 831.161 198.491 830.586 199.131C830.011 199.763 829.723 200.576 829.723 201.57V212H826.548V201.123C826.548 200.235 826.271 199.521 825.717 198.982C825.163 198.442 824.442 198.172 823.555 198.172C822.951 198.172 822.393 198.332 821.882 198.651C821.378 198.964 820.969 199.401 820.657 199.962C820.351 200.523 820.199 201.173 820.199 201.911V212H817.013ZM843.527 218.136V195.636H846.638V198.289H846.904C847.089 197.948 847.355 197.554 847.703 197.107C848.051 196.659 848.534 196.268 849.152 195.935C849.77 195.594 850.587 195.423 851.602 195.423C852.923 195.423 854.102 195.757 855.139 196.425C856.176 197.092 856.989 198.055 857.579 199.312C858.176 200.569 858.474 202.082 858.474 203.85C858.474 205.619 858.179 207.135 857.59 208.399C857 209.656 856.19 210.626 855.161 211.308C854.131 211.982 852.955 212.32 851.634 212.32C850.64 212.32 849.827 212.153 849.195 211.819C848.57 211.485 848.08 211.094 847.725 210.647C847.369 210.2 847.096 209.802 846.904 209.454H846.712V218.136H843.527ZM846.649 203.818C846.649 204.969 846.815 205.977 847.149 206.844C847.483 207.71 847.966 208.388 848.598 208.879C849.23 209.362 850.004 209.603 850.921 209.603C851.872 209.603 852.668 209.351 853.307 208.847C853.946 208.335 854.429 207.643 854.756 206.769C855.09 205.896 855.256 204.912 855.256 203.818C855.256 202.739 855.093 201.769 854.766 200.91C854.447 200.05 853.964 199.372 853.318 198.875C852.678 198.378 851.879 198.129 850.921 198.129C849.997 198.129 849.216 198.367 848.577 198.843C847.945 199.319 847.465 199.983 847.139 200.835C846.812 201.687 846.649 202.682 846.649 203.818ZM865.228 190.182V212H862.043V190.182H865.228ZM876.566 212.33C874.954 212.33 873.565 211.986 872.4 211.297C871.243 210.601 870.348 209.624 869.716 208.367C869.091 207.103 868.778 205.622 868.778 203.925C868.778 202.249 869.091 200.771 869.716 199.493C870.348 198.214 871.229 197.217 872.358 196.499C873.494 195.782 874.822 195.423 876.342 195.423C877.266 195.423 878.16 195.576 879.027 195.881C879.893 196.187 880.671 196.666 881.36 197.32C882.049 197.973 882.592 198.822 882.99 199.866C883.388 200.903 883.587 202.163 883.587 203.648V204.777H870.579V202.391H880.465C880.465 201.553 880.295 200.81 879.954 200.164C879.613 199.511 879.133 198.996 878.516 198.619C877.905 198.243 877.187 198.055 876.364 198.055C875.469 198.055 874.687 198.275 874.02 198.715C873.359 199.148 872.848 199.717 872.486 200.42C872.131 201.116 871.953 201.872 871.953 202.689V204.553C871.953 205.647 872.145 206.577 872.528 207.344C872.919 208.112 873.462 208.697 874.158 209.102C874.854 209.5 875.668 209.699 876.598 209.699C877.202 209.699 877.752 209.614 878.249 209.443C878.746 209.266 879.176 209.003 879.538 208.655C879.9 208.307 880.177 207.877 880.369 207.366L883.384 207.909C883.143 208.797 882.709 209.575 882.084 210.242C881.467 210.903 880.689 211.418 879.751 211.787C878.821 212.149 877.759 212.33 876.566 212.33ZM889.254 195.636L892.866 202.007L896.509 195.636H899.993L894.89 203.818L900.035 212H896.552L892.866 205.885L889.19 212H885.696L890.788 203.818L885.76 195.636H889.254ZM903.263 212V195.636H906.449V212H903.263ZM904.872 193.112C904.318 193.112 903.842 192.927 903.445 192.558C903.054 192.181 902.859 191.734 902.859 191.215C902.859 190.69 903.054 190.242 903.445 189.873C903.842 189.496 904.318 189.308 904.872 189.308C905.426 189.308 905.898 189.496 906.289 189.873C906.687 190.242 906.886 190.69 906.886 191.215C906.886 191.734 906.687 192.181 906.289 192.558C905.898 192.927 905.426 193.112 904.872 193.112ZM918.373 195.636V198.193H909.434V195.636H918.373ZM911.831 191.716H915.017V207.195C915.017 207.813 915.109 208.278 915.294 208.591C915.478 208.896 915.716 209.106 916.008 209.219C916.306 209.326 916.629 209.379 916.977 209.379C917.233 209.379 917.456 209.362 917.648 209.326C917.84 209.29 917.989 209.262 918.096 209.241L918.671 211.872C918.486 211.943 918.223 212.014 917.883 212.085C917.542 212.163 917.116 212.206 916.604 212.213C915.766 212.227 914.985 212.078 914.26 211.766C913.536 211.453 912.95 210.97 912.503 210.317C912.055 209.663 911.831 208.843 911.831 207.856V191.716ZM923.91 218.136C923.434 218.136 923.001 218.097 922.61 218.019C922.219 217.948 921.928 217.87 921.736 217.785L922.503 215.175C923.086 215.331 923.604 215.398 924.059 215.377C924.513 215.356 924.915 215.185 925.263 214.866C925.618 214.546 925.93 214.024 926.2 213.3L926.594 212.213L920.607 195.636H924.016L928.16 208.335H928.331L932.475 195.636H935.895L929.151 214.184C928.839 215.036 928.441 215.757 927.958 216.347C927.475 216.943 926.9 217.391 926.232 217.689C925.565 217.987 924.79 218.136 923.91 218.136Z" fill="white"/>
<path d="M85.8333 280C71.1053 280 59.1667 268.061 59.1667 253.333V204.34C59.1667 197.817 59.1667 194.556 58.4293 191.487C57.776 188.767 56.6987 186.165 55.2373 183.779C53.588 181.088 51.2813 178.781 46.6693 174.169L32.5 160L46.6693 145.831C51.2813 141.219 53.588 138.912 55.2373 136.221C56.6987 133.835 57.776 131.234 58.4293 128.513C59.1667 125.444 59.1667 122.183 59.1667 115.66V66.6667C59.1667 51.9391 71.1053 40 85.8333 40" stroke="white" stroke-width="30" stroke-linecap="round" stroke-linejoin="round"/>
<path d="M236.875 280C251.603 280 263.542 268.061 263.542 253.333V204.34C263.542 197.817 263.542 194.556 264.279 191.487C264.932 188.767 266.01 186.165 267.471 183.779C269.12 181.088 271.427 178.781 276.039 174.169L290.208 160L276.039 145.831C271.427 141.219 269.12 138.912 267.471 136.221C266.01 133.835 264.932 131.234 264.279 128.513C263.542 125.444 263.542 122.183 263.542 115.66V66.6667C263.542 51.9391 251.603 40 236.875 40" stroke="white" stroke-width="30" stroke-linecap="round" stroke-linejoin="round"/>
<path d="M133.168 69.0133H182.204L162.707 129.155L215 119.649L140.646 268.987L162.336 165.393L107.5 176.142L133.168 69.0133Z" fill="#6366F1"/>
<path d="M354.023 85.1818H368.614V133.864C368.614 138.364 367.602 142.273 365.58 145.591C363.58 148.909 360.795 151.466 357.227 153.261C353.659 155.057 349.511 155.955 344.784 155.955C340.58 155.955 336.761 155.216 333.33 153.739C329.92 152.239 327.216 149.966 325.216 146.92C323.216 143.852 322.227 140 322.25 135.364H336.943C336.989 137.205 337.364 138.784 338.068 140.102C338.795 141.398 339.784 142.398 341.034 143.102C342.307 143.784 343.807 144.125 345.534 144.125C347.352 144.125 348.886 143.739 350.136 142.966C351.409 142.17 352.375 141.011 353.034 139.489C353.693 137.966 354.023 136.091 354.023 133.864V85.1818ZM418.693 105.261C418.42 102.511 417.25 100.375 415.182 98.8523C413.114 97.3295 410.307 96.5682 406.761 96.5682C404.352 96.5682 402.318 96.9091 400.659 97.5909C399 98.25 397.727 99.1705 396.841 100.352C395.977 101.534 395.545 102.875 395.545 104.375C395.5 105.625 395.761 106.716 396.33 107.648C396.92 108.58 397.727 109.386 398.75 110.068C399.773 110.727 400.955 111.307 402.295 111.807C403.636 112.284 405.068 112.693 406.591 113.034L412.864 114.534C415.909 115.216 418.705 116.125 421.25 117.261C423.795 118.398 426 119.795 427.864 121.455C429.727 123.114 431.17 125.068 432.193 127.318C433.239 129.568 433.773 132.148 433.795 135.057C433.773 139.33 432.682 143.034 430.523 146.17C428.386 149.284 425.295 151.705 421.25 153.432C417.227 155.136 412.375 155.989 406.693 155.989C401.057 155.989 396.148 155.125 391.966 153.398C387.807 151.67 384.557 149.114 382.216 145.727C379.898 142.318 378.682 138.102 378.568 133.08H392.852C393.011 135.42 393.682 137.375 394.864 138.943C396.068 140.489 397.67 141.659 399.67 142.455C401.693 143.227 403.977 143.614 406.523 143.614C409.023 143.614 411.193 143.25 413.034 142.523C414.898 141.795 416.341 140.784 417.364 139.489C418.386 138.193 418.898 136.705 418.898 135.023C418.898 133.455 418.432 132.136 417.5 131.068C416.591 130 415.25 129.091 413.477 128.341C411.727 127.591 409.58 126.909 407.034 126.295L399.432 124.386C393.545 122.955 388.898 120.716 385.489 117.67C382.08 114.625 380.386 110.523 380.409 105.364C380.386 101.136 381.511 97.4432 383.784 94.2841C386.08 91.125 389.227 88.6591 393.227 86.8864C397.227 85.1136 401.773 84.2273 406.864 84.2273C412.045 84.2273 416.568 85.1136 420.432 86.8864C424.318 88.6591 427.341 91.125 429.5 94.2841C431.659 97.4432 432.773 101.102 432.841 105.261H418.693ZM507.884 120.091C507.884 127.705 506.44 134.182 503.554 139.523C500.69 144.864 496.781 148.943 491.827 151.761C486.895 154.557 481.349 155.955 475.19 155.955C468.986 155.955 463.418 154.545 458.486 151.727C453.554 148.909 449.656 144.83 446.793 139.489C443.929 134.148 442.497 127.682 442.497 120.091C442.497 112.477 443.929 106 446.793 100.659C449.656 95.3182 453.554 91.25 458.486 88.4545C463.418 85.6364 468.986 84.2273 475.19 84.2273C481.349 84.2273 486.895 85.6364 491.827 88.4545C496.781 91.25 500.69 95.3182 503.554 100.659C506.44 106 507.884 112.477 507.884 120.091ZM492.918 120.091C492.918 115.159 492.179 111 490.702 107.614C489.247 104.227 487.19 101.659 484.531 99.9091C481.872 98.1591 478.759 97.2841 475.19 97.2841C471.622 97.2841 468.509 98.1591 465.849 99.9091C463.19 101.659 461.122 104.227 459.645 107.614C458.19 111 457.463 115.159 457.463 120.091C457.463 125.023 458.19 129.182 459.645 132.568C461.122 135.955 463.19 138.523 465.849 140.273C468.509 142.023 471.622 142.898 475.19 142.898C478.759 142.898 481.872 142.023 484.531 140.273C487.19 138.523 489.247 135.955 490.702 132.568C492.179 129.182 492.918 125.023 492.918 120.091ZM577.216 85.1818V155H564.466L534.091 111.057H533.58V155H518.818V85.1818H531.773L561.909 129.091H562.523V85.1818H577.216Z" fill="white"/>
<path d="M610.659 156.023C605.273 156.023 600.636 154.932 596.75 152.75C592.886 150.545 589.909 147.432 587.818 143.409C585.727 139.364 584.682 134.58 584.682 129.057C584.682 123.67 585.727 118.943 587.818 114.875C589.909 110.807 592.852 107.636 596.648 105.364C600.466 103.091 604.943 101.955 610.08 101.955C613.534 101.955 616.75 102.511 619.727 103.625C622.727 104.716 625.341 106.364 627.568 108.568C629.818 110.773 631.568 113.545 632.818 116.886C634.068 120.205 634.693 124.091 634.693 128.545V132.534H590.477V123.534H621.023C621.023 121.443 620.568 119.591 619.659 117.977C618.75 116.364 617.489 115.102 615.875 114.193C614.284 113.261 612.432 112.795 610.318 112.795C608.114 112.795 606.159 113.307 604.455 114.33C602.773 115.33 601.455 116.682 600.5 118.386C599.545 120.068 599.057 121.943 599.034 124.011V132.568C599.034 135.159 599.511 137.398 600.466 139.284C601.443 141.17 602.818 142.625 604.591 143.648C606.364 144.67 608.466 145.182 610.898 145.182C612.511 145.182 613.989 144.955 615.33 144.5C616.67 144.045 617.818 143.364 618.773 142.455C619.727 141.545 620.455 140.432 620.955 139.114L634.386 140C633.705 143.227 632.307 146.045 630.193 148.455C628.102 150.841 625.398 152.705 622.08 154.045C618.784 155.364 614.977 156.023 610.659 156.023ZM655.369 102.636L664.983 120.943L674.835 102.636H689.733L674.562 128.818L690.142 155H675.312L664.983 136.898L654.824 155H639.824L655.369 128.818L640.369 102.636H655.369ZM698.358 174.636V102.636H712.676V111.432H713.324C713.96 110.023 714.881 108.591 716.085 107.136C717.313 105.659 718.903 104.432 720.858 103.455C722.835 102.455 725.29 101.955 728.222 101.955C732.04 101.955 735.563 102.955 738.79 104.955C742.017 106.932 744.597 109.92 746.528 113.92C748.46 117.898 749.426 122.886 749.426 128.886C749.426 134.727 748.483 139.659 746.597 143.682C744.733 147.682 742.188 150.716 738.96 152.784C735.756 154.83 732.165 155.852 728.188 155.852C725.369 155.852 722.972 155.386 720.994 154.455C719.04 153.523 717.438 152.352 716.188 150.943C714.938 149.511 713.983 148.068 713.324 146.614H712.881V174.636H698.358ZM712.574 128.818C712.574 131.932 713.006 134.648 713.869 136.966C714.733 139.284 715.983 141.091 717.619 142.386C719.256 143.659 721.244 144.295 723.585 144.295C725.949 144.295 727.949 143.648 729.585 142.352C731.222 141.034 732.46 139.216 733.301 136.898C734.165 134.557 734.597 131.864 734.597 128.818C734.597 125.795 734.176 123.136 733.335 120.841C732.494 118.545 731.256 116.75 729.619 115.455C727.983 114.159 725.972 113.511 723.585 113.511C721.222 113.511 719.222 114.136 717.585 115.386C715.972 116.636 714.733 118.409 713.869 120.705C713.006 123 712.574 125.705 712.574 128.818ZM759.108 155V102.636H773.188V111.773H773.733C774.688 108.523 776.29 106.068 778.54 104.409C780.79 102.727 783.381 101.886 786.312 101.886C787.04 101.886 787.824 101.932 788.665 102.023C789.506 102.114 790.244 102.239 790.881 102.398V115.284C790.199 115.08 789.256 114.898 788.051 114.739C786.847 114.58 785.744 114.5 784.744 114.5C782.608 114.5 780.699 114.966 779.017 115.898C777.358 116.807 776.04 118.08 775.062 119.716C774.108 121.352 773.631 123.239 773.631 125.375V155H759.108ZM819.815 156.023C814.429 156.023 809.793 154.932 805.906 152.75C802.043 150.545 799.065 147.432 796.974 143.409C794.884 139.364 793.838 134.58 793.838 129.057C793.838 123.67 794.884 118.943 796.974 114.875C799.065 110.807 802.009 107.636 805.804 105.364C809.622 103.091 814.099 101.955 819.236 101.955C822.69 101.955 825.906 102.511 828.884 103.625C831.884 104.716 834.497 106.364 836.724 108.568C838.974 110.773 840.724 113.545 841.974 116.886C843.224 120.205 843.849 124.091 843.849 128.545V132.534H799.634V123.534H830.179C830.179 121.443 829.724 119.591 828.815 117.977C827.906 116.364 826.645 115.102 825.031 114.193C823.44 113.261 821.588 112.795 819.474 112.795C817.27 112.795 815.315 113.307 813.611 114.33C811.929 115.33 810.611 116.682 809.656 118.386C808.702 120.068 808.213 121.943 808.19 124.011V132.568C808.19 135.159 808.668 137.398 809.622 139.284C810.599 141.17 811.974 142.625 813.747 143.648C815.52 144.67 817.622 145.182 820.054 145.182C821.668 145.182 823.145 144.955 824.486 144.5C825.827 144.045 826.974 143.364 827.929 142.455C828.884 141.545 829.611 140.432 830.111 139.114L843.543 140C842.861 143.227 841.463 146.045 839.349 148.455C837.259 150.841 834.554 152.705 831.236 154.045C827.94 155.364 824.134 156.023 819.815 156.023ZM896.895 117.568L883.599 118.386C883.372 117.25 882.884 116.227 882.134 115.318C881.384 114.386 880.395 113.648 879.168 113.102C877.963 112.534 876.52 112.25 874.838 112.25C872.588 112.25 870.69 112.727 869.145 113.682C867.599 114.614 866.827 115.864 866.827 117.432C866.827 118.682 867.327 119.739 868.327 120.602C869.327 121.466 871.043 122.159 873.474 122.682L882.952 124.591C888.043 125.636 891.838 127.318 894.338 129.636C896.838 131.955 898.088 135 898.088 138.773C898.088 142.205 897.077 145.216 895.054 147.807C893.054 150.398 890.304 152.42 886.804 153.875C883.327 155.307 879.315 156.023 874.77 156.023C867.838 156.023 862.315 154.58 858.202 151.693C854.111 148.784 851.713 144.83 851.009 139.83L865.293 139.08C865.724 141.193 866.77 142.807 868.429 143.92C870.088 145.011 872.213 145.557 874.804 145.557C877.349 145.557 879.395 145.068 880.94 144.091C882.509 143.091 883.304 141.807 883.327 140.239C883.304 138.92 882.747 137.841 881.656 137C880.565 136.136 878.884 135.477 876.611 135.023L867.543 133.216C862.429 132.193 858.622 130.42 856.122 127.898C853.645 125.375 852.406 122.159 852.406 118.25C852.406 114.886 853.315 111.989 855.134 109.557C856.974 107.125 859.554 105.25 862.872 103.932C866.213 102.614 870.122 101.955 874.599 101.955C881.213 101.955 886.418 103.352 890.213 106.148C894.031 108.943 896.259 112.75 896.895 117.568ZM950.801 117.568L937.506 118.386C937.278 117.25 936.79 116.227 936.04 115.318C935.29 114.386 934.301 113.648 933.074 113.102C931.869 112.534 930.426 112.25 928.744 112.25C926.494 112.25 924.597 112.727 923.051 113.682C921.506 114.614 920.733 115.864 920.733 117.432C920.733 118.682 921.233 119.739 922.233 120.602C923.233 121.466 924.949 122.159 927.381 122.682L936.858 124.591C941.949 125.636 945.744 127.318 948.244 129.636C950.744 131.955 951.994 135 951.994 138.773C951.994 142.205 950.983 145.216 948.96 147.807C946.96 150.398 944.21 152.42 940.71 153.875C937.233 155.307 933.222 156.023 928.676 156.023C921.744 156.023 916.222 154.58 912.108 151.693C908.017 148.784 905.619 144.83 904.915 139.83L919.199 139.08C919.631 141.193 920.676 142.807 922.335 143.92C923.994 145.011 926.119 145.557 928.71 145.557C931.256 145.557 933.301 145.068 934.847 144.091C936.415 143.091 937.21 141.807 937.233 140.239C937.21 138.92 936.653 137.841 935.562 137C934.472 136.136 932.79 135.477 930.517 135.023L921.449 133.216C916.335 132.193 912.528 130.42 910.028 127.898C907.551 125.375 906.312 122.159 906.312 118.25C906.312 114.886 907.222 111.989 909.04 109.557C910.881 107.125 913.46 105.25 916.778 103.932C920.119 102.614 924.028 101.955 928.506 101.955C935.119 101.955 940.324 103.352 944.119 106.148C947.938 108.943 950.165 112.75 950.801 117.568Z" fill="#6366F1"/>
</svg>
