<svg width="967" height="320" viewBox="0 0 967 320" fill="none" xmlns="http://www.w3.org/2000/svg">
<path d="M85.8333 280C71.1053 280 59.1667 268.061 59.1667 253.333V204.34C59.1667 197.817 59.1667 194.556 58.4293 191.487C57.776 188.767 56.6987 186.165 55.2373 183.779C53.588 181.088 51.2813 178.781 46.6693 174.169L32.5 160L46.6693 145.831C51.2813 141.219 53.588 138.912 55.2373 136.221C56.6987 133.835 57.776 131.234 58.4293 128.513C59.1667 125.444 59.1667 122.183 59.1667 115.66V66.6667C59.1667 51.9391 71.1053 40 85.8333 40" stroke="#060606" stroke-width="30" stroke-linecap="round" stroke-linejoin="round"/>
<path d="M236.875 280C251.603 280 263.542 268.061 263.542 253.333V204.34C263.542 197.817 263.542 194.556 264.279 191.487C264.932 188.767 266.01 186.165 267.471 183.779C269.12 181.088 271.427 178.781 276.039 174.169L290.208 160L276.039 145.831C271.427 141.219 269.12 138.912 267.471 136.221C266.01 133.835 264.932 131.234 264.279 128.513C263.542 125.444 263.542 122.183 263.542 115.66V66.6667C263.542 51.9391 251.603 40 236.875 40" stroke="#060606" stroke-width="30" stroke-linecap="round" stroke-linejoin="round"/>
<path d="M133.168 69.0133H182.204L162.707 129.155L215 119.649L140.646 268.987L162.336 165.393L107.5 176.142L133.168 69.0133Z" fill="#6366F1"/>
<path d="M354.023 129.182H368.614V177.864C368.614 182.364 367.602 186.273 365.58 189.591C363.58 192.909 360.795 195.466 357.227 197.261C353.659 199.057 349.511 199.955 344.784 199.955C340.58 199.955 336.761 199.216 333.33 197.739C329.92 196.239 327.216 193.966 325.216 190.92C323.216 187.852 322.227 184 322.25 179.364H336.943C336.989 181.205 337.364 182.784 338.068 184.102C338.795 185.398 339.784 186.398 341.034 187.102C342.307 187.784 343.807 188.125 345.534 188.125C347.352 188.125 348.886 187.739 350.136 186.966C351.409 186.17 352.375 185.011 353.034 183.489C353.693 181.966 354.023 180.091 354.023 177.864V129.182ZM418.693 149.261C418.42 146.511 417.25 144.375 415.182 142.852C413.114 141.33 410.307 140.568 406.761 140.568C404.352 140.568 402.318 140.909 400.659 141.591C399 142.25 397.727 143.17 396.841 144.352C395.977 145.534 395.545 146.875 395.545 148.375C395.5 149.625 395.761 150.716 396.33 151.648C396.92 152.58 397.727 153.386 398.75 154.068C399.773 154.727 400.955 155.307 402.295 155.807C403.636 156.284 405.068 156.693 406.591 157.034L412.864 158.534C415.909 159.216 418.705 160.125 421.25 161.261C423.795 162.398 426 163.795 427.864 165.455C429.727 167.114 431.17 169.068 432.193 171.318C433.239 173.568 433.773 176.148 433.795 179.057C433.773 183.33 432.682 187.034 430.523 190.17C428.386 193.284 425.295 195.705 421.25 197.432C417.227 199.136 412.375 199.989 406.693 199.989C401.057 199.989 396.148 199.125 391.966 197.398C387.807 195.67 384.557 193.114 382.216 189.727C379.898 186.318 378.682 182.102 378.568 177.08H392.852C393.011 179.42 393.682 181.375 394.864 182.943C396.068 184.489 397.67 185.659 399.67 186.455C401.693 187.227 403.977 187.614 406.523 187.614C409.023 187.614 411.193 187.25 413.034 186.523C414.898 185.795 416.341 184.784 417.364 183.489C418.386 182.193 418.898 180.705 418.898 179.023C418.898 177.455 418.432 176.136 417.5 175.068C416.591 174 415.25 173.091 413.477 172.341C411.727 171.591 409.58 170.909 407.034 170.295L399.432 168.386C393.545 166.955 388.898 164.716 385.489 161.67C382.08 158.625 380.386 154.523 380.409 149.364C380.386 145.136 381.511 141.443 383.784 138.284C386.08 135.125 389.227 132.659 393.227 130.886C397.227 129.114 401.773 128.227 406.864 128.227C412.045 128.227 416.568 129.114 420.432 130.886C424.318 132.659 427.341 135.125 429.5 138.284C431.659 141.443 432.773 145.102 432.841 149.261H418.693ZM507.884 164.091C507.884 171.705 506.44 178.182 503.554 183.523C500.69 188.864 496.781 192.943 491.827 195.761C486.895 198.557 481.349 199.955 475.19 199.955C468.986 199.955 463.418 198.545 458.486 195.727C453.554 192.909 449.656 188.83 446.793 183.489C443.929 178.148 442.497 171.682 442.497 164.091C442.497 156.477 443.929 150 446.793 144.659C449.656 139.318 453.554 135.25 458.486 132.455C463.418 129.636 468.986 128.227 475.19 128.227C481.349 128.227 486.895 129.636 491.827 132.455C496.781 135.25 500.69 139.318 503.554 144.659C506.44 150 507.884 156.477 507.884 164.091ZM492.918 164.091C492.918 159.159 492.179 155 490.702 151.614C489.247 148.227 487.19 145.659 484.531 143.909C481.872 142.159 478.759 141.284 475.19 141.284C471.622 141.284 468.509 142.159 465.849 143.909C463.19 145.659 461.122 148.227 459.645 151.614C458.19 155 457.463 159.159 457.463 164.091C457.463 169.023 458.19 173.182 459.645 176.568C461.122 179.955 463.19 182.523 465.849 184.273C468.509 186.023 471.622 186.898 475.19 186.898C478.759 186.898 481.872 186.023 484.531 184.273C487.19 182.523 489.247 179.955 490.702 176.568C492.179 173.182 492.918 169.023 492.918 164.091ZM577.216 129.182V199H564.466L534.091 155.057H533.58V199H518.818V129.182H531.773L561.909 173.091H562.523V129.182H577.216Z" fill="#060606"/>
<path d="M610.659 200.023C605.273 200.023 600.636 198.932 596.75 196.75C592.886 194.545 589.909 191.432 587.818 187.409C585.727 183.364 584.682 178.58 584.682 173.057C584.682 167.67 585.727 162.943 587.818 158.875C589.909 154.807 592.852 151.636 596.648 149.364C600.466 147.091 604.943 145.955 610.08 145.955C613.534 145.955 616.75 146.511 619.727 147.625C622.727 148.716 625.341 150.364 627.568 152.568C629.818 154.773 631.568 157.545 632.818 160.886C634.068 164.205 634.693 168.091 634.693 172.545V176.534H590.477V167.534H621.023C621.023 165.443 620.568 163.591 619.659 161.977C618.75 160.364 617.489 159.102 615.875 158.193C614.284 157.261 612.432 156.795 610.318 156.795C608.114 156.795 606.159 157.307 604.455 158.33C602.773 159.33 601.455 160.682 600.5 162.386C599.545 164.068 599.057 165.943 599.034 168.011V176.568C599.034 179.159 599.511 181.398 600.466 183.284C601.443 185.17 602.818 186.625 604.591 187.648C606.364 188.67 608.466 189.182 610.898 189.182C612.511 189.182 613.989 188.955 615.33 188.5C616.67 188.045 617.818 187.364 618.773 186.455C619.727 185.545 620.455 184.432 620.955 183.114L634.386 184C633.705 187.227 632.307 190.045 630.193 192.455C628.102 194.841 625.398 196.705 622.08 198.045C618.784 199.364 614.977 200.023 610.659 200.023ZM655.369 146.636L664.983 164.943L674.835 146.636H689.733L674.562 172.818L690.142 199H675.312L664.983 180.898L654.824 199H639.824L655.369 172.818L640.369 146.636H655.369ZM698.358 218.636V146.636H712.676V155.432H713.324C713.96 154.023 714.881 152.591 716.085 151.136C717.313 149.659 718.903 148.432 720.858 147.455C722.835 146.455 725.29 145.955 728.222 145.955C732.04 145.955 735.563 146.955 738.79 148.955C742.017 150.932 744.597 153.92 746.528 157.92C748.46 161.898 749.426 166.886 749.426 172.886C749.426 178.727 748.483 183.659 746.597 187.682C744.733 191.682 742.188 194.716 738.96 196.784C735.756 198.83 732.165 199.852 728.188 199.852C725.369 199.852 722.972 199.386 720.994 198.455C719.04 197.523 717.438 196.352 716.188 194.943C714.938 193.511 713.983 192.068 713.324 190.614H712.881V218.636H698.358ZM712.574 172.818C712.574 175.932 713.006 178.648 713.869 180.966C714.733 183.284 715.983 185.091 717.619 186.386C719.256 187.659 721.244 188.295 723.585 188.295C725.949 188.295 727.949 187.648 729.585 186.352C731.222 185.034 732.46 183.216 733.301 180.898C734.165 178.557 734.597 175.864 734.597 172.818C734.597 169.795 734.176 167.136 733.335 164.841C732.494 162.545 731.256 160.75 729.619 159.455C727.983 158.159 725.972 157.511 723.585 157.511C721.222 157.511 719.222 158.136 717.585 159.386C715.972 160.636 714.733 162.409 713.869 164.705C713.006 167 712.574 169.705 712.574 172.818ZM759.108 199V146.636H773.188V155.773H773.733C774.688 152.523 776.29 150.068 778.54 148.409C780.79 146.727 783.381 145.886 786.312 145.886C787.04 145.886 787.824 145.932 788.665 146.023C789.506 146.114 790.244 146.239 790.881 146.398V159.284C790.199 159.08 789.256 158.898 788.051 158.739C786.847 158.58 785.744 158.5 784.744 158.5C782.608 158.5 780.699 158.966 779.017 159.898C777.358 160.807 776.04 162.08 775.062 163.716C774.108 165.352 773.631 167.239 773.631 169.375V199H759.108ZM819.815 200.023C814.429 200.023 809.793 198.932 805.906 196.75C802.043 194.545 799.065 191.432 796.974 187.409C794.884 183.364 793.838 178.58 793.838 173.057C793.838 167.67 794.884 162.943 796.974 158.875C799.065 154.807 802.009 151.636 805.804 149.364C809.622 147.091 814.099 145.955 819.236 145.955C822.69 145.955 825.906 146.511 828.884 147.625C831.884 148.716 834.497 150.364 836.724 152.568C838.974 154.773 840.724 157.545 841.974 160.886C843.224 164.205 843.849 168.091 843.849 172.545V176.534H799.634V167.534H830.179C830.179 165.443 829.724 163.591 828.815 161.977C827.906 160.364 826.645 159.102 825.031 158.193C823.44 157.261 821.588 156.795 819.474 156.795C817.27 156.795 815.315 157.307 813.611 158.33C811.929 159.33 810.611 160.682 809.656 162.386C808.702 164.068 808.213 165.943 808.19 168.011V176.568C808.19 179.159 808.668 181.398 809.622 183.284C810.599 185.17 811.974 186.625 813.747 187.648C815.52 188.67 817.622 189.182 820.054 189.182C821.668 189.182 823.145 188.955 824.486 188.5C825.827 188.045 826.974 187.364 827.929 186.455C828.884 185.545 829.611 184.432 830.111 183.114L843.543 184C842.861 187.227 841.463 190.045 839.349 192.455C837.259 194.841 834.554 196.705 831.236 198.045C827.94 199.364 824.134 200.023 819.815 200.023ZM896.895 161.568L883.599 162.386C883.372 161.25 882.884 160.227 882.134 159.318C881.384 158.386 880.395 157.648 879.168 157.102C877.963 156.534 876.52 156.25 874.838 156.25C872.588 156.25 870.69 156.727 869.145 157.682C867.599 158.614 866.827 159.864 866.827 161.432C866.827 162.682 867.327 163.739 868.327 164.602C869.327 165.466 871.043 166.159 873.474 166.682L882.952 168.591C888.043 169.636 891.838 171.318 894.338 173.636C896.838 175.955 898.088 179 898.088 182.773C898.088 186.205 897.077 189.216 895.054 191.807C893.054 194.398 890.304 196.42 886.804 197.875C883.327 199.307 879.315 200.023 874.77 200.023C867.838 200.023 862.315 198.58 858.202 195.693C854.111 192.784 851.713 188.83 851.009 183.83L865.293 183.08C865.724 185.193 866.77 186.807 868.429 187.92C870.088 189.011 872.213 189.557 874.804 189.557C877.349 189.557 879.395 189.068 880.94 188.091C882.509 187.091 883.304 185.807 883.327 184.239C883.304 182.92 882.747 181.841 881.656 181C880.565 180.136 878.884 179.477 876.611 179.023L867.543 177.216C862.429 176.193 858.622 174.42 856.122 171.898C853.645 169.375 852.406 166.159 852.406 162.25C852.406 158.886 853.315 155.989 855.134 153.557C856.974 151.125 859.554 149.25 862.872 147.932C866.213 146.614 870.122 145.955 874.599 145.955C881.213 145.955 886.418 147.352 890.213 150.148C894.031 152.943 896.259 156.75 896.895 161.568ZM950.801 161.568L937.506 162.386C937.278 161.25 936.79 160.227 936.04 159.318C935.29 158.386 934.301 157.648 933.074 157.102C931.869 156.534 930.426 156.25 928.744 156.25C926.494 156.25 924.597 156.727 923.051 157.682C921.506 158.614 920.733 159.864 920.733 161.432C920.733 162.682 921.233 163.739 922.233 164.602C923.233 165.466 924.949 166.159 927.381 166.682L936.858 168.591C941.949 169.636 945.744 171.318 948.244 173.636C950.744 175.955 951.994 179 951.994 182.773C951.994 186.205 950.983 189.216 948.96 191.807C946.96 194.398 944.21 196.42 940.71 197.875C937.233 199.307 933.222 200.023 928.676 200.023C921.744 200.023 916.222 198.58 912.108 195.693C908.017 192.784 905.619 188.83 904.915 183.83L919.199 183.08C919.631 185.193 920.676 186.807 922.335 187.92C923.994 189.011 926.119 189.557 928.71 189.557C931.256 189.557 933.301 189.068 934.847 188.091C936.415 187.091 937.21 185.807 937.233 184.239C937.21 182.92 936.653 181.841 935.562 181C934.472 180.136 932.79 179.477 930.517 179.023L921.449 177.216C916.335 176.193 912.528 174.42 910.028 171.898C907.551 169.375 906.312 166.159 906.312 162.25C906.312 158.886 907.222 155.989 909.04 153.557C910.881 151.125 913.46 149.25 916.778 147.932C920.119 146.614 924.028 145.955 928.506 145.955C935.119 145.955 940.324 147.352 944.119 150.148C947.938 152.943 950.165 156.75 950.801 161.568Z" fill="#6366F1"/>
</svg>
